# xmcd CD database file
#
# Track frame offsets:
#	150
#	14007
#	27332
#	38660
#	53412
#	66297
#	78340
#	92780
#	107147
#	119205
#	130892
#	143162
#	158740
#	170767
#
# Disc length: 2470 seconds
#
# Revision: 0
# Processed by: cddbd v1.5.1PL0 Copyright (c) Steve Scherf et al.
# Submitted via: CDex 1.51
#
DISCID=c009a40e
DTITLE=Count Basie - Best Artist Collection
DYEAR=1900
DGENRE=Jazz
TTITLE0=One O'clock Jump
TTITLE1=John's Idea
TTITLE2=Backstage at Stuffs
TTITLE3=Swingin' the Blues
TTITLE4=South
TTITLE5=Sventh Avenue Express
TTITLE6=Don't You Miss Your Baby
TTITLE7=Jumpin' at The Woodside
TTITLE8=Bill's Mill
TTITLE9=Bye Bye Baby
TTITLE10=House Rent Boogie
TTITLE11=One O'clock Jump Boogie
TTITLE12=St. Louis Boogie
TTITLE13=Good Morning Blues
EXTD=
EXTT0=
EXTT1=
EXTT2=
EXTT3=
EXTT4=
EXTT5=
EXTT6=
EXTT7=
EXTT8=
EXTT9=
EXTT10=
EXTT11=
EXTT12=
EXTT13=
PLAYORDER=
